<svg xmlns="http://www.w3.org/2000/svg" width="1400" height="900" viewBox="0 0 1400 900" role="img"><style>.bg{fill:#faf9f6}.box{fill:#fff;stroke:#26344d;stroke-width:2.5}.blue{fill:#edf3ff;stroke:#3b64b0;stroke-width:2.8}.green{fill:#eef8f1;stroke:#2f7b4d;stroke-width:2.8}.orange{fill:#fff4e8;stroke:#aa6721;stroke-width:2.8}.purple{fill:#f5efff;stroke:#7044aa;stroke-width:2.8}.red{fill:#fbeeee;stroke:#a94747;stroke-width:2.8}.title{font:700 34px -apple-system,BlinkMacSystemFont,"Segoe UI",sans-serif;fill:#172033}.label{font:700 24px -apple-system,BlinkMacSystemFont,"Segoe UI",sans-serif;fill:#172033}.body{font:500 18px -apple-system,BlinkMacSystemFont,"Segoe UI",sans-serif;fill:#354056}.small{font:500 16px -apple-system,BlinkMacSystemFont,"Segoe UI",sans-serif;fill:#4f596c}.arrow{fill:none;stroke:#52617a;stroke-width:4;marker-end:url(#a)}.axis{stroke:#25324a;stroke-width:2.5}.grid{stroke:#d5dae2;stroke-width:1.4;stroke-dasharray:5 6}</style><defs><marker id="a" markerWidth="12" markerHeight="12" refX="10" refY="6" orient="auto"><path d="M0,0 L12,6 L0,12 z" fill="#52617a"/></marker></defs><rect class="bg" width="1400" height="900"/><text class="title" x="700.0" y="55" text-anchor="middle">Bradley–Terry Loss Focuses Learning on Hard Pairs</text><line class="axis" x1="150" y1="740" x2="1260" y2="740"/><line class="axis" x1="150" y1="740" x2="150" y2="120"/><line class="grid" x1="150.0" y1="120" x2="150.0" y2="740"/><text class="small" x="150.0" y="770" text-anchor="middle">-4</text><line class="grid" x1="372.0" y1="120" x2="372.0" y2="740"/><text class="small" x="372.0" y="770" text-anchor="middle">-2</text><line class="grid" x1="594.0" y1="120" x2="594.0" y2="740"/><text class="small" x="594.0" y="770" text-anchor="middle">0</text><line class="grid" x1="816.0" y1="120" x2="816.0" y2="740"/><text class="small" x="816.0" y="770" text-anchor="middle">2</text><line class="grid" x1="1038.0" y1="120" x2="1038.0" y2="740"/><text class="small" x="1038.0" y="770" text-anchor="middle">4</text><line class="grid" x1="1260.0" y1="120" x2="1260.0" y2="740"/><text class="small" x="1260.0" y="770" text-anchor="middle">6</text><line class="grid" x1="150" y1="740.0" x2="1260" y2="740.0"/><text class="small" x="125" y="746.0" text-anchor="end">0</text><line class="grid" x1="150" y1="602.2222222222222" x2="1260" y2="602.2222222222222"/><text class="small" x="125" y="608.2222222222222" text-anchor="end">1</text><line class="grid" x1="150" y1="464.44444444444446" x2="1260" y2="464.44444444444446"/><text class="small" x="125" y="470.44444444444446" text-anchor="end">2</text><line class="grid" x1="150" y1="326.6666666666667" x2="1260" y2="326.6666666666667"/><text class="small" x="125" y="332.6666666666667" text-anchor="end">3</text><line class="grid" x1="150" y1="188.8888888888889" x2="1260" y2="188.8888888888889"/><text class="small" x="125" y="194.8888888888889" text-anchor="end">4</text><polyline fill="none" stroke="#7044aa" stroke-width="5" points="150.0,186.4 155.5,193.2 161.1,199.9 166.6,206.7 172.2,213.4 177.8,220.1 183.3,226.9 188.9,233.6 194.4,240.3 200.0,247.0 205.5,253.7 211.0,260.4 216.6,267.0 222.1,273.7 227.7,280.3 233.2,287.0 238.8,293.6 244.4,300.2 249.9,306.8 255.5,313.4 261.0,320.0 266.5,326.5 272.1,333.1 277.6,339.6 283.2,346.1 288.8,352.6 294.3,359.0 299.9,365.5 305.4,371.9 311.0,378.3 316.5,384.7 322.0,391.0 327.6,397.4 333.1,403.7 338.7,409.9 344.2,416.2 349.8,422.4 355.4,428.6 360.9,434.8 366.5,440.9 372.0,447.0 377.5,453.0 383.1,459.0 388.6,465.0 394.2,470.9 399.8,476.8 405.3,482.7 410.9,488.5 416.4,494.2 422.0,499.9 427.5,505.6 433.1,511.2 438.6,516.7 444.2,522.2 449.7,527.7 455.2,533.1 460.8,538.4 466.4,543.7 471.9,548.9 477.5,554.0 483.0,559.1 488.6,564.1 494.1,569.0 499.6,573.9 505.2,578.6 510.8,583.4 516.3,588.0 521.9,592.6 527.4,597.1 533.0,601.5 538.5,605.8 544.0,610.0 549.6,614.2 555.1,618.3 560.7,622.3 566.2,626.2 571.8,630.0 577.4,633.8 582.9,637.4 588.5,641.0 594.0,644.5 599.5,647.9 605.1,651.2 610.7,654.4 616.2,657.6 621.8,660.6 627.3,663.6 632.8,666.5 638.4,669.3 644.0,672.0 649.5,674.7 655.0,677.2 660.6,679.7 666.1,682.1 671.7,684.4 677.2,686.7 682.8,688.9 688.4,691.0 693.9,693.0 699.5,695.0 705.0,696.8 710.5,698.7 716.1,700.4 721.6,702.1 727.2,703.7 732.8,705.3 738.3,706.8 743.8,708.2 749.4,709.6 755.0,711.0 760.5,712.2 766.0,713.5 771.6,714.7 777.2,715.8 782.7,716.9 788.2,717.9 793.8,718.9 799.3,719.9 804.9,720.8 810.4,721.7 816.0,722.5 821.5,723.3 827.1,724.1 832.6,724.8 838.2,725.5 843.8,726.2 849.3,726.8 854.9,727.4 860.4,728.0 866.0,728.6 871.5,729.1 877.1,729.6 882.6,730.1 888.2,730.6 893.7,731.0 899.2,731.5 904.8,731.9 910.3,732.3 915.9,732.6 921.5,733.0 927.0,733.3 932.5,733.6 938.1,733.9 943.7,734.2 949.2,734.5 954.8,734.8 960.3,735.0 965.9,735.2 971.4,735.5 977.0,735.7 982.5,735.9 988.0,736.1 993.6,736.3 999.1,736.5 1004.7,736.6 1010.2,736.8 1015.8,737.0 1021.3,737.1 1026.9,737.2 1032.5,737.4 1038.0,737.5 1043.6,737.6 1049.1,737.7 1054.7,737.8 1060.2,737.9 1065.8,738.0 1071.3,738.1 1076.8,738.2 1082.4,738.3 1087.9,738.4 1093.5,738.5 1099.1,738.6 1104.6,738.6 1110.2,738.7 1115.7,738.8 1121.2,738.8 1126.8,738.9 1132.3,738.9 1137.9,739.0 1143.4,739.0 1149.0,739.1 1154.6,739.1 1160.1,739.2 1165.7,739.2 1171.2,739.2 1176.8,739.3 1182.3,739.3 1187.8,739.3 1193.4,739.4 1199.0,739.4 1204.5,739.4 1210.1,739.5 1215.6,739.5 1221.2,739.5 1226.7,739.5 1232.2,739.6 1237.8,739.6 1243.3,739.6 1248.9,739.6 1254.4,739.6 1260.0,739.7"/><text class="body" x="705" y="815" text-anchor="middle">Reward gap g = r(winner) − r(loser)</text><text class="body" x="45" y="430" transform="rotate(-90 45 430)" text-anchor="middle">Loss −log σ(g)</text><circle cx="616.2" cy="657.5897557740918" r="9" fill="#aa6721"/><text class="body" x="634.2" y="645.5897557740918">Hard pair</text><circle cx="1038.0" cy="737.4993432646573" r="9" fill="#aa6721"/><text class="body" x="1056.0" y="725.4993432646573">Easy pair</text><text class="body" x="760" y="100" text-anchor="middle">Wrong or uncertain pairs receive large loss; confident correct pairs go nearly flat.</text></svg>