<?xml version="1.0"?>
<svg xmlns="http://www.w3.org/2000/svg" width="1400" height="900" viewBox="0 0 1400 900" role="img">
  <style>.bg{fill:#faf9f6}.box{fill:#fff;stroke:#26344d;stroke-width:2.5}.blue{fill:#edf3ff;stroke:#3b64b0;stroke-width:2.8}.green{fill:#eef8f1;stroke:#2f7b4d;stroke-width:2.8}.orange{fill:#fff4e8;stroke:#aa6721;stroke-width:2.8}.purple{fill:#f5efff;stroke:#7044aa;stroke-width:2.8}.red{fill:#fbeeee;stroke:#a94747;stroke-width:2.8}.title{font:700 34px -apple-system,BlinkMacSystemFont,"Segoe UI",sans-serif;fill:#172033}.label{font:700 24px -apple-system,BlinkMacSystemFont,"Segoe UI",sans-serif;fill:#172033}.body{font:500 18px -apple-system,BlinkMacSystemFont,"Segoe UI",sans-serif;fill:#354056}.small{font:500 16px -apple-system,BlinkMacSystemFont,"Segoe UI",sans-serif;fill:#4f596c}.arrow{fill:none;stroke:#52617a;stroke-width:4;marker-end:url(#a)}.axis{stroke:#25324a;stroke-width:2.5}.grid{stroke:#d5dae2;stroke-width:1.4;stroke-dasharray:5 6}</style>
  <defs>
    <marker id="a" markerWidth="12" markerHeight="12" refX="10" refY="6" orient="auto">
      <path d="M0,0 L12,6 L0,12 z" fill="#52617a"/>
    </marker>
  </defs>
  <rect class="bg" width="1400" height="900"/>
  <text class="title" x="700.0" y="55" text-anchor="middle">From One Terminal Verdict to Token-Level Advantages</text>
  <rect class="blue" x="70" y="150" width="280" height="150" rx="20"/>
  <text class="label" x="210" y="200" text-anchor="middle">Generated Response</text>
  <text class="body" x="210" y="240" text-anchor="middle">a&#x2081;, a&#x2082;, &#x2026;, a_T</text>
  <path class="arrow" d="M350 225 L450 225"/>
  <rect class="purple" x="450" y="130" width="340" height="190" rx="20"/>
  <text class="label" x="620" y="178" text-anchor="middle">Frozen Reward Model</text>
  <text class="body" x="620" y="218" text-anchor="middle">one scalar r&#x3C6;(x,y)</text>
  <text class="body" x="620" y="252" text-anchor="middle">placed on final token only</text>
  <path class="arrow" d="M790 225 L890 225"/>
  <rect class="orange" x="890" y="115" width="410" height="220" rx="20"/>
  <text class="label" x="1095" y="165" text-anchor="middle">Per-Token Reward</text>
  <text class="body" x="1095" y="205" text-anchor="middle">R&#x209C; = &#x2212;&#x3B2;(log &#x3C0;&#x3B8; &#x2212; log &#x3C0;ref)</text>
  <text class="body" x="1095" y="240" text-anchor="middle">+ r&#x3C6; &#xB7; 1[t=T]</text>
  <text class="body" x="1095" y="278" text-anchor="middle">KL penalty in expectation; verdict at the end</text>
  <path class="arrow" d="M1095 335 L1095 450"/>
  <rect class="green" x="880" y="450" width="430" height="150" rx="20"/>
  <text class="label" x="1095" y="498" text-anchor="middle">Returns Propagate Backward</text>
  <text class="body" x="1095" y="538" text-anchor="middle">G&#x209C; = R&#x209C; + G&#x209C;&#x208A;&#x2081;</text>
  <text class="body" x="1095" y="570" text-anchor="middle">earlier tokens inherit future reward</text>
  <path class="arrow" d="M880 525 L720 525"/>
  <rect class="box" x="390" y="450" width="330" height="150" rx="20"/>
  <text class="label" x="555" y="498" text-anchor="middle">Critic Baseline</text>
  <text class="body" x="555" y="538" text-anchor="middle">V&#x3C8;(s&#x209C;)</text>
  <text class="body" x="555" y="570" text-anchor="middle">expected return from the prefix</text>
  <path class="arrow" d="M390 525 L280 525"/>
  <rect class="red" x="60" y="450" width="220" height="150" rx="20"/>
  <text class="label" x="170" y="498" text-anchor="middle">Advantage</text>
  <text class="body" x="170" y="538" text-anchor="middle">A&#x209C; = G&#x209C; &#x2212; V(s&#x209C;)</text>
  <text class="body" x="170" y="570" text-anchor="middle">signed token instruction</text>
  <path class="arrow" d="M170 600 L170 720"/>
  <rect class="blue" x="60" y="720" width="430" height="120" rx="20"/>
  <text class="label" x="275" y="770" text-anchor="middle">PPO acts on each token</text>
  <text class="body" x="275" y="810" text-anchor="middle">increase A&#x209C; &gt; 0 &#xB7; decrease A&#x209C; &lt; 0 &#xB7; clip the ratio</text>
</svg>
