<svg xmlns="http://www.w3.org/2000/svg" width="1400" height="900" viewBox="0 0 1400 900" role="img"><style>.bg{fill:#faf9f6}.box{fill:#fff;stroke:#26344d;stroke-width:2.5}.blue{fill:#edf3ff;stroke:#3b64b0;stroke-width:2.8}.green{fill:#eef8f1;stroke:#2f7b4d;stroke-width:2.8}.orange{fill:#fff4e8;stroke:#aa6721;stroke-width:2.8}.purple{fill:#f5efff;stroke:#7044aa;stroke-width:2.8}.red{fill:#fbeeee;stroke:#a94747;stroke-width:2.8}.title{font:700 34px -apple-system,BlinkMacSystemFont,"Segoe UI",sans-serif;fill:#172033}.label{font:700 24px -apple-system,BlinkMacSystemFont,"Segoe UI",sans-serif;fill:#172033}.body{font:500 18px -apple-system,BlinkMacSystemFont,"Segoe UI",sans-serif;fill:#354056}.small{font:500 16px -apple-system,BlinkMacSystemFont,"Segoe UI",sans-serif;fill:#4f596c}.arrow{fill:none;stroke:#52617a;stroke-width:4;marker-end:url(#a)}.axis{stroke:#25324a;stroke-width:2.5}.grid{stroke:#d5dae2;stroke-width:1.4;stroke-dasharray:5 6}</style><defs><marker id="a" markerWidth="12" markerHeight="12" refX="10" refY="6" orient="auto"><path d="M0,0 L12,6 L0,12 z" fill="#52617a"/></marker></defs><rect class="bg" width="1400" height="900"/><text class="title" x="700.0" y="55" text-anchor="middle">Over-Optimisation: Proxy Reward Rises After True Quality Peaks</text><line class="axis" x1="150" y1="760" x2="1260" y2="760"/><line class="axis" x1="150" y1="760" x2="150" y2="150"/><line class="grid" x1="150.0" y1="150" x2="150.0" y2="760"/><text class="small" x="150.0" y="790" text-anchor="middle">0</text><line class="grid" x1="196.25" y1="150" x2="196.25" y2="760"/><text class="small" x="196.25" y="790" text-anchor="middle">5</text><line class="grid" x1="288.75" y1="150" x2="288.75" y2="760"/><text class="small" x="288.75" y="790" text-anchor="middle">15</text><line class="grid" x1="427.5" y1="150" x2="427.5" y2="760"/><text class="small" x="427.5" y="790" text-anchor="middle">30</text><line class="grid" x1="705.0" y1="150" x2="705.0" y2="760"/><text class="small" x="705.0" y="790" text-anchor="middle">60</text><line class="grid" x1="1260.0" y1="150" x2="1260.0" y2="760"/><text class="small" x="1260.0" y="790" text-anchor="middle">120</text><line class="grid" x1="150" y1="760" x2="1260" y2="760"/><text class="small" x="130" y="766" text-anchor="end">0</text><line class="grid" x1="150" y1="607.5" x2="1260" y2="607.5"/><text class="small" x="130" y="613.5" text-anchor="end">0.25</text><line class="grid" x1="150" y1="455.0" x2="1260" y2="455.0"/><text class="small" x="130" y="461.0" text-anchor="end">0.5</text><line class="grid" x1="150" y1="302.5" x2="1260" y2="302.5"/><text class="small" x="130" y="308.5" text-anchor="end">0.75</text><line class="grid" x1="150" y1="150" x2="1260" y2="150"/><text class="small" x="130" y="156" text-anchor="end">1</text><polyline fill="none" stroke="#7044aa" stroke-width="5" points="150.0,760.0 196.2,503.8 288.8,326.9 427.5,223.2 705.0,174.4 1260.0,156.1"/><polyline fill="none" stroke="#2f7b4d" stroke-width="5" points="150.0,760.0 196.2,516.0 288.8,375.7 427.5,333.0 705.0,424.5 1260.0,570.9"/><circle cx="427.5" cy="333.0" r="10" fill="#aa6721"/><text class="body" x="447.5" y="318.0">true-quality peak</text><text class="body" x="1130" y="205">Proxy reward</text><text class="body" x="1130" y="485">True quality</text><text class="body" x="700" y="835" text-anchor="middle">KL divergence from frozen reference policy</text><text class="body" x="50" y="450" transform="rotate(-90 50 450)" text-anchor="middle">Normalized score</text></svg>