<?xml version="1.0"?>
<svg xmlns="http://www.w3.org/2000/svg" width="1400" height="1120" viewBox="0 0 1400 1120" role="img">
  <style>.bg{fill:#faf9f6}.box{fill:#fff;stroke:#26344d;stroke-width:2.5}.blue{fill:#edf3ff;stroke:#3b64b0;stroke-width:2.8}.green{fill:#eef8f1;stroke:#2f7b4d;stroke-width:2.8}.orange{fill:#fff4e8;stroke:#aa6721;stroke-width:2.8}.purple{fill:#f5efff;stroke:#7044aa;stroke-width:2.8}.red{fill:#fbeeee;stroke:#a94747;stroke-width:2.8}.title{font:700 34px -apple-system,BlinkMacSystemFont,"Segoe UI",sans-serif;fill:#172033}.label{font:700 24px -apple-system,BlinkMacSystemFont,"Segoe UI",sans-serif;fill:#172033}.body{font:500 18px -apple-system,BlinkMacSystemFont,"Segoe UI",sans-serif;fill:#354056}.small{font:500 16px -apple-system,BlinkMacSystemFont,"Segoe UI",sans-serif;fill:#4f596c}.arrow{fill:none;stroke:#52617a;stroke-width:4;marker-end:url(#a)}.axis{stroke:#25324a;stroke-width:2.5}.grid{stroke:#d5dae2;stroke-width:1.4;stroke-dasharray:5 6}</style>
  <defs>
    <marker id="a" markerWidth="12" markerHeight="12" refX="10" refY="6" orient="auto">
      <path d="M0,0 L12,6 L0,12 z" fill="#52617a"/>
    </marker>
  </defs>
  <rect class="bg" width="1400" height="1120"/>
  <text class="title" x="700.0" y="55" text-anchor="middle">Complete RLHF Algorithm Flow</text>
  <rect class="blue" x="450" y="90" width="500" height="110" rx="20"/>
  <text class="label" x="700" y="135" text-anchor="middle">1. Supervised Fine-Tuning</text>
  <text class="body" x="700" y="172" text-anchor="middle">produce a capable instruction-following model</text>
  <path class="arrow" d="M700 200 L700 250"/>
  <rect class="green" x="450" y="250" width="500" height="130" rx="20"/>
  <text class="label" x="700" y="298" text-anchor="middle">2. Collect Human Preferences</text>
  <text class="body" x="700" y="336" text-anchor="middle">prompt + preferred response + rejected response</text>
  <path class="arrow" d="M700 380 L700 430"/>
  <rect class="purple" x="450" y="430" width="500" height="130" rx="20"/>
  <text class="label" x="700" y="478" text-anchor="middle">3. Train Reward Model</text>
  <text class="body" x="700" y="516" text-anchor="middle">minimize &#x2212;log &#x3C3;(rw &#x2212; rl), then freeze</text>
  <path class="arrow" d="M700 560 L700 610"/>
  <rect class="orange" x="380" y="610" width="640" height="150" rx="20"/>
  <text class="label" x="700" y="658" text-anchor="middle">4. Generate Responses with Policy</text>
  <text class="body" x="700" y="696" text-anchor="middle">store tokens and old log-probabilities</text>
  <text class="body" x="700" y="728" text-anchor="middle">score complete response with frozen reward model</text>
  <path class="arrow" d="M700 760 L700 810"/>
  <rect class="box" x="380" y="810" width="640" height="160" rx="20"/>
  <text class="label" x="700" y="858" text-anchor="middle">5. Build Token Learning Signals</text>
  <text class="body" x="700" y="896" text-anchor="middle">sampled log-ratio vs &#x3C0;ref &#xB7; terminal RM score &#xB7; returns</text>
  <text class="body" x="700" y="930" text-anchor="middle">critic values &#xB7; advantages</text>
  <path class="arrow" d="M700 970 L700 1010"/>
  <rect class="red" x="380" y="1010" width="640" height="95" rx="20"/>
  <text class="label" x="700" y="1050" text-anchor="middle">6. Run K Clipped PPO Epochs</text>
  <text class="body" x="700" y="1080" text-anchor="middle">update actor and critic, discard batch, repeat</text>
  <path class="arrow" d="M380 1055 C130 1055 120 685 380 685"/>
</svg>
