<svg xmlns="http://www.w3.org/2000/svg" width="1400" height="900" viewBox="0 0 1400 900" role="img"><style>.bg{fill:#faf9f6}.box{fill:#fff;stroke:#26344d;stroke-width:2.5}.blue{fill:#edf3ff;stroke:#3b64b0;stroke-width:2.8}.green{fill:#eef8f1;stroke:#2f7b4d;stroke-width:2.8}.orange{fill:#fff4e8;stroke:#aa6721;stroke-width:2.8}.purple{fill:#f5efff;stroke:#7044aa;stroke-width:2.8}.red{fill:#fbeeee;stroke:#a94747;stroke-width:2.8}.title{font:700 34px -apple-system,BlinkMacSystemFont,"Segoe UI",sans-serif;fill:#172033}.label{font:700 24px -apple-system,BlinkMacSystemFont,"Segoe UI",sans-serif;fill:#172033}.body{font:500 18px -apple-system,BlinkMacSystemFont,"Segoe UI",sans-serif;fill:#354056}.small{font:500 16px -apple-system,BlinkMacSystemFont,"Segoe UI",sans-serif;fill:#4f596c}.arrow{fill:none;stroke:#52617a;stroke-width:4;marker-end:url(#a)}.axis{stroke:#25324a;stroke-width:2.5}.grid{stroke:#d5dae2;stroke-width:1.4;stroke-dasharray:5 6}</style><defs><marker id="a" markerWidth="12" markerHeight="12" refX="10" refY="6" orient="auto"><path d="M0,0 L12,6 L0,12 z" fill="#52617a"/></marker></defs><rect class="bg" width="1400" height="900"/><text class="title" x="700.0" y="55" text-anchor="middle">Token-Level Credit Assignment: “Gravity pulls objects down”</text><text class="body" x="700" y="95" text-anchor="middle">Reward-model score = +2.0 · β = 0.2 · γ = 1</text><rect class="blue" x="90" y="150" width="1220" height="100" rx="18"/><text class="label" x="240" y="210" text-anchor="middle">Gravity</text><text class="label" x="540" y="210" text-anchor="middle">pulls</text><text class="label" x="840" y="210" text-anchor="middle">objects</text><text class="label" x="1140" y="210" text-anchor="middle">down</text><text class="label" x="35" y="330">Rₜ</text><text class="body" x="240" y="330" text-anchor="middle">0.00</text><text class="body" x="540" y="330" text-anchor="middle">−0.08</text><text class="body" x="840" y="330" text-anchor="middle">−0.02</text><text class="body" x="1140" y="330" text-anchor="middle">+1.89</text><text class="label" x="35" y="440">Gₜ</text><text class="body" x="240" y="440" text-anchor="middle">1.79</text><text class="body" x="540" y="440" text-anchor="middle">1.79</text><text class="body" x="840" y="440" text-anchor="middle">1.87</text><text class="body" x="1140" y="440" text-anchor="middle">1.89</text><text class="label" x="35" y="550">Vₜ</text><text class="body" x="240" y="550" text-anchor="middle">1.50</text><text class="body" x="540" y="550" text-anchor="middle">1.60</text><text class="body" x="840" y="550" text-anchor="middle">1.85</text><text class="body" x="1140" y="550" text-anchor="middle">1.95</text><text class="label" x="35" y="660">Aₜ</text><rect class="green" x="150" y="610" width="180" height="85" rx="16"/><text class="label" x="240" y="665" text-anchor="middle">+0.29</text><rect class="green" x="450" y="610" width="180" height="85" rx="16"/><text class="label" x="540" y="665" text-anchor="middle">+0.19</text><rect class="green" x="750" y="610" width="180" height="85" rx="16"/><text class="label" x="840" y="665" text-anchor="middle">+0.02</text><rect class="red" x="1050" y="610" width="180" height="85" rx="16"/><text class="label" x="1140" y="665" text-anchor="middle">−0.06</text><path class="arrow" d="M1140 355 C1000 390 820 390 540 390"/><path class="arrow" d="M540 390 C420 390 330 390 240 390"/><text class="small" x="820" y="375" text-anchor="middle">terminal verdict flows backward through returns</text><text class="body" x="700" y="790" text-anchor="middle">The final token carries the terminal reward yet has negative advantage because the critic expected more.</text></svg>